<svg width="176" height="40" viewBox="0 0 44 10" fill="none" xmlns="http://www.w3.org/2000/svg">
<path d="M3.91406 3.48047C3.85156 3.57422 3.77148 3.62109 3.67383 3.62109C3.60742 3.62109 3.54297 3.57031 3.48047 3.46875C3.41797 3.36719 3.38672 3.2793 3.38672 3.20508C3.38672 3.11914 3.44141 3.02344 3.55078 2.91797C3.66406 2.8125 3.78125 2.75977 3.90234 2.75977C4.01953 2.75977 4.14648 2.83594 4.2832 2.98828C4.41992 3.14062 4.48828 3.28125 4.48828 3.41016C4.48828 3.70703 4.39258 3.95703 4.20117 4.16016C4.01367 4.36328 3.8125 4.46484 3.59766 4.46484C3.35156 4.46484 3.13672 4.35352 2.95312 4.13086C2.76953 3.9043 2.67773 3.65625 2.67773 3.38672C2.67773 3 2.86523 2.63281 3.24023 2.28516C3.61523 1.9375 4.08398 1.76367 4.64648 1.76367C5.47461 1.76367 6.21875 2.10938 6.87891 2.80078C7.53906 3.49219 7.86914 4.24609 7.86914 5.0625C7.86914 6.08984 7.51172 7.02148 6.79688 7.85742C6.08203 8.68945 5.25586 9.10547 4.31836 9.10547C3.23633 9.10547 2.31836 8.75 1.56445 8.03906C0.810547 7.32422 0.433594 6.48047 0.433594 5.50781C0.433594 4.5625 0.736328 3.70117 1.3418 2.92383C1.95117 2.14648 2.69922 1.64844 3.58594 1.42969L3.66211 1.60547C2.94336 1.74609 2.36523 2.16797 1.92773 2.87109C1.49023 3.57422 1.27148 4.40039 1.27148 5.34961C1.27148 6.3457 1.56641 7.1875 2.15625 7.875C2.74609 8.5625 3.5 8.90625 4.41797 8.90625C5.16016 8.90625 5.77148 8.54297 6.25195 7.81641C6.73242 7.08984 6.97266 6.25195 6.97266 5.30273C6.97266 4.36133 6.74023 3.58398 6.27539 2.9707C5.81055 2.35742 5.21094 2.05078 4.47656 2.05078C4.02734 2.05078 3.64844 2.18945 3.33984 2.4668C3.03516 2.74023 2.88281 3.04102 2.88281 3.36914C2.88281 3.54492 2.95508 3.69141 3.09961 3.80859C3.24414 3.92578 3.39453 3.98438 3.55078 3.98438C3.75 3.98438 3.91992 3.9375 4.06055 3.84375C4.20117 3.74609 4.27148 3.62891 4.27148 3.49219C4.27148 3.37891 4.23047 3.28516 4.14844 3.21094C4.06641 3.13281 3.97656 3.09375 3.87891 3.09375C3.65234 3.09375 3.53906 3.13086 3.53906 3.20508C3.53906 3.27148 3.66406 3.36328 3.91406 3.48047ZM11.9355 3.35742C11.6152 3.41602 11.3496 3.45898 11.1387 3.48633C10.9316 3.50977 10.6289 3.58398 10.2305 3.70898C10.2109 3.95898 10.0957 4.57422 9.88477 5.55469C9.67383 6.53125 9.56836 7.19141 9.56836 7.53516C9.56836 7.98047 9.6582 8.32227 9.83789 8.56055C10.0215 8.79883 10.2793 8.91797 10.6113 8.91797C10.8535 8.91797 11.0391 8.81055 11.168 8.5957C11.3008 8.37695 11.3672 8.0957 11.3672 7.75195C11.3672 7.61914 11.3203 7.48242 11.2266 7.3418C11.1328 7.20117 11.0293 7.13086 10.916 7.13086C10.8145 7.13086 10.7324 7.17969 10.6699 7.27734C10.6074 7.375 10.5762 7.48828 10.5762 7.61719C10.5762 7.73047 10.6289 7.78711 10.7344 7.78711C10.8398 7.78711 10.916 7.70312 10.9629 7.53516L11.0332 7.58203C11.0332 7.70312 10.998 7.80469 10.9277 7.88672C10.8613 7.96484 10.7891 8.00391 10.7109 8.00391C10.582 8.00391 10.459 7.96289 10.3418 7.88086C10.2285 7.79492 10.1719 7.6875 10.1719 7.55859C10.1719 7.39062 10.2441 7.24219 10.3887 7.11328C10.5371 6.98047 10.6953 6.91406 10.8633 6.91406C11.0781 6.91406 11.291 6.98828 11.502 7.13672C11.7168 7.28516 11.8242 7.44141 11.8242 7.60547C11.8242 7.97656 11.7109 8.32031 11.4844 8.63672C11.2578 8.94922 10.9961 9.10547 10.6992 9.10547C10.2461 9.10547 9.88477 8.96484 9.61523 8.68359C9.3457 8.39844 9.21094 8.02344 9.21094 7.55859C9.21094 7.32812 9.25586 6.70898 9.3457 5.70117C9.43945 4.68945 9.48242 4.10156 9.47461 3.9375L8.39062 4.24805V3.92578L9.47461 3.67383C9.48242 3.55664 9.48633 3.41992 9.48633 3.26367C9.48633 2.79883 9.45312 2.34766 9.38672 1.91016L10.3945 1.74023C10.4062 2.22852 10.3594 2.79297 10.2539 3.43359C10.7422 3.27734 11.0723 3.18359 11.2441 3.15234C11.416 3.11719 11.6172 3.06641 11.8477 3L11.9355 3.35742ZM13.8164 5.16211C13.7891 5.32227 13.6973 5.40234 13.541 5.40234C13.4551 5.40234 13.3848 5.37305 13.3301 5.31445C13.2754 5.25195 13.248 5.17188 13.248 5.07422C13.248 4.96094 13.2969 4.85547 13.3945 4.75781C13.4961 4.65625 13.6035 4.60547 13.7168 4.60547C14.2441 4.60547 14.5078 4.75781 14.5078 5.0625C14.5078 5.31641 14.373 5.55078 14.1035 5.76562C13.834 5.97656 13.6016 6.08203 13.4062 6.08203C13.1758 6.08203 12.9805 6.01758 12.8203 5.88867C12.6602 5.75586 12.5801 5.58008 12.5801 5.36133C12.5801 4.9082 12.793 4.44727 13.2188 3.97852C13.6445 3.50977 14.0879 3.27539 14.5488 3.27539C14.9277 3.27539 15.2461 3.43945 15.5039 3.76758C15.7617 4.0918 15.8906 4.49219 15.8906 4.96875C15.8906 5.30859 15.8418 5.59961 15.7441 5.8418C15.6504 6.08398 15.5059 6.36914 15.3105 6.69727C14.8105 7.52539 14.5605 8.28516 14.5605 8.97656C14.5605 9.05469 14.5645 9.13477 14.5723 9.2168H14.332L14.3438 8.4375C13.8555 8.75781 13.5039 8.91797 13.2891 8.91797C13.0234 8.91797 12.8047 8.83789 12.6328 8.67773C12.4609 8.51367 12.375 8.30078 12.375 8.03906C12.375 7.79297 12.502 7.57617 12.7559 7.38867C13.0137 7.19727 13.2988 7.10156 13.6113 7.10156C13.834 7.10156 14.1895 7.07812 14.6777 7.03125C14.9668 6.40234 15.1113 5.8418 15.1113 5.34961C15.1113 4.2168 14.8516 3.65039 14.332 3.65039C13.8555 3.65039 13.5137 3.80469 13.3066 4.11328C13.0996 4.41797 12.9961 4.83984 12.9961 5.37891C12.9961 5.52734 13.0391 5.6543 13.125 5.75977C13.2148 5.86523 13.3242 5.91797 13.4531 5.91797C13.6133 5.91797 13.7656 5.84375 13.9102 5.69531C14.0547 5.54688 14.127 5.38477 14.127 5.20898C14.127 5.11133 14.082 5.02734 13.9922 4.95703C13.9023 4.88281 13.8027 4.8457 13.6934 4.8457C13.6465 4.8457 13.6035 4.86914 13.5645 4.91602C13.5293 4.96289 13.5117 5.01172 13.5117 5.0625C13.5117 5.16016 13.5527 5.20898 13.6348 5.20898C13.7012 5.20898 13.7617 5.19336 13.8164 5.16211ZM14.5957 7.23633C14.2676 7.25586 14.002 7.2832 13.7988 7.31836C13.5996 7.34961 13.4375 7.44141 13.3125 7.59375C13.1914 7.74219 13.1309 7.89844 13.1309 8.0625C13.1309 8.21875 13.1719 8.34766 13.2539 8.44922C13.3398 8.55078 13.4512 8.60156 13.5879 8.60156C13.8262 8.60156 14.0938 8.45117 14.3906 8.15039L14.5957 7.23633ZM21.1875 4.18945L21.1641 4.36523C20.8516 4.30664 20.5996 4.21094 20.4082 4.07812C18.8184 5.23438 17.9492 5.87109 17.8008 5.98828C18.1094 6.01172 18.3691 6.07617 18.5801 6.18164C18.791 6.2832 18.9492 6.41016 19.0547 6.5625C19.1602 6.71484 19.2168 6.84961 19.2246 6.9668C19.2363 7.08008 19.2422 7.32617 19.2422 7.70508C19.2422 8.01367 19.2715 8.23633 19.3301 8.37305C19.3926 8.50586 19.4902 8.60547 19.623 8.67188C19.7598 8.73828 19.9043 8.77148 20.0566 8.77148C20.2949 8.77148 20.4863 8.67969 20.6309 8.49609C20.7754 8.30859 20.8477 8.11328 20.8477 7.91016C20.8477 7.62109 20.6934 7.47656 20.3848 7.47656C20.2832 7.47656 20.209 7.48633 20.1621 7.50586C20.1152 7.52539 20.0918 7.57617 20.0918 7.6582C20.0918 7.75195 20.168 7.79883 20.3203 7.79883C20.3477 7.79883 20.3848 7.78906 20.4316 7.76953C20.4824 7.75 20.5176 7.74023 20.5371 7.74023C20.5488 7.77148 20.5547 7.80273 20.5547 7.83398C20.5547 7.9043 20.5273 7.96484 20.4727 8.01562C20.4219 8.0625 20.3555 8.08594 20.2734 8.08594C20.1562 8.08594 20.0664 8.04297 20.0039 7.95703C19.9453 7.86719 19.916 7.75977 19.916 7.63477C19.916 7.52148 19.9883 7.39648 20.1328 7.25977C20.2773 7.12305 20.4199 7.05469 20.5605 7.05469C20.7246 7.05469 20.8535 7.13281 20.9473 7.28906C21.041 7.44531 21.0879 7.62305 21.0879 7.82227C21.0879 8.20117 20.957 8.5 20.6953 8.71875C20.4336 8.9375 20.0781 9.04688 19.6289 9.04688C19.375 9.04688 19.1582 8.94922 18.9785 8.75391C18.8027 8.55469 18.7109 8.34961 18.7031 8.13867C18.7031 7.83789 18.6465 7.48242 18.5332 7.07227C18.4199 6.6582 18.0801 6.36133 17.5137 6.18164L17.2031 8.61328L18.1523 8.66602L18.0996 8.94141C17.3457 8.83203 16.6621 8.78711 16.0488 8.80664L16.084 8.53125L17.0215 8.56641C17.0918 7.74609 17.1484 6.31641 17.1914 4.27734C17.2383 2.23438 17.2617 0.912109 17.2617 0.310547C17.0625 0.310547 16.7871 0.291016 16.4355 0.251953L16.459 0.0351562C16.8184 0.0664062 17.2363 0.0820312 17.7129 0.0820312C18.2559 0.0820312 18.6855 0.0625 19.002 0.0234375V0.193359C18.6152 0.208984 18.3203 0.232422 18.1172 0.263672C18.082 1.04492 17.9004 2.91797 17.5723 5.88281L20.0332 3.89062C20.0098 3.86328 19.916 3.78906 19.752 3.66797C19.5918 3.54688 19.4785 3.44336 19.4121 3.35742L19.5645 3.18164C20.1113 3.70508 20.6523 4.04102 21.1875 4.18945ZM27.041 9.03516C26.5918 9.16797 26.2285 9.30469 25.9512 9.44531L25.8164 8.0625C25.3242 8.77734 24.7324 9.13477 24.041 9.13477C23.5137 9.13477 23.0293 8.92578 22.5879 8.50781C22.1465 8.08594 21.9258 7.57422 21.9258 6.97266C21.9258 6.72656 21.998 6.45312 22.1426 6.15234C22.2871 5.85156 22.4512 5.60938 22.6348 5.42578C22.8223 5.23828 22.9824 5.02539 23.1152 4.78711C23.252 4.54883 23.3203 4.36133 23.3203 4.22461C23.3203 3.80664 23.1406 3.59766 22.7812 3.59766C22.625 3.59766 22.4746 3.64258 22.3301 3.73242C22.1895 3.82227 22.1191 3.93359 22.1191 4.06641C22.1191 4.15625 22.1562 4.23633 22.2305 4.30664C22.3047 4.37305 22.3848 4.40625 22.4707 4.40625C22.5723 4.40625 22.6348 4.39648 22.6582 4.37695C22.6855 4.35742 22.6992 4.32617 22.6992 4.2832C22.6992 4.18555 22.6152 4.12109 22.4473 4.08984C22.5293 3.99609 22.5957 3.94922 22.6465 3.94922C22.7168 3.94922 22.7793 3.98242 22.834 4.04883C22.8926 4.11133 22.9219 4.18555 22.9219 4.27148C22.9219 4.40039 22.8672 4.52148 22.7578 4.63477C22.6523 4.74414 22.5352 4.79883 22.4062 4.79883C22.2852 4.79883 22.1719 4.74023 22.0664 4.62305C21.9648 4.50195 21.9141 4.37695 21.9141 4.24805C21.9141 4.00586 22.0039 3.77148 22.1836 3.54492C22.3633 3.31836 22.5547 3.20508 22.7578 3.20508C22.9805 3.20508 23.1641 3.29883 23.3086 3.48633C23.4531 3.66992 23.5254 3.89258 23.5254 4.1543C23.5254 4.51367 23.4297 4.86133 23.2383 5.19727C22.8203 5.93555 22.6113 6.50781 22.6113 6.91406C22.6113 7.51953 22.7559 7.99609 23.0449 8.34375C23.3379 8.69141 23.7305 8.86523 24.2227 8.86523C24.8242 8.86523 25.3398 8.46289 25.7695 7.6582C25.6289 6.41602 25.4238 5.1875 25.1543 3.97266L24.5332 4.00781L24.5566 3.75586C25.252 3.74414 25.9004 3.63672 26.502 3.43359L26.5605 3.67383L25.9629 3.83789C25.9629 5.1582 26.0332 6.88672 26.1738 9.02344C26.4551 8.96484 26.7168 8.87695 26.959 8.75977L27.041 9.03516ZM30.3809 2.32617C30.2871 2.2793 30.1992 2.25586 30.1172 2.25586C30.0078 2.25586 29.9531 2.38086 29.9531 2.63086C29.9531 2.71289 29.9902 2.78906 30.0645 2.85938C30.1426 2.92969 30.2285 2.96484 30.3223 2.96484C30.6816 2.96484 30.8613 2.64844 30.8613 2.01562C30.8613 1.76172 30.7598 1.54297 30.5566 1.35938C30.3574 1.17188 30.123 1.07812 29.8535 1.07812C29.4941 1.07812 29.1816 1.21484 28.916 1.48828C28.6543 1.75781 28.5234 2.0625 28.5234 2.40234C28.5234 2.67969 28.627 2.95312 28.834 3.22266C29.041 3.48828 29.457 3.79102 30.082 4.13086C30.707 4.4707 31.1523 4.73047 31.418 4.91016C31.6836 5.08984 31.9082 5.30859 32.0918 5.56641C32.2793 5.82422 32.373 6.12109 32.373 6.45703C32.373 7.08594 32.0879 7.6875 31.5176 8.26172C30.9512 8.83203 30.3242 9.11719 29.6367 9.11719C29.1367 9.11719 28.6992 8.92383 28.3242 8.53711C27.9531 8.15039 27.7676 7.70117 27.7676 7.18945C27.7676 6.7793 27.9473 6.4082 28.3066 6.07617C28.6699 5.74414 29.043 5.57812 29.4258 5.57812C29.7812 5.57812 30.0664 5.66406 30.2812 5.83594C30.5 6.00391 30.6094 6.23047 30.6094 6.51562C30.6094 6.81641 30.4863 7.07812 30.2402 7.30078C29.998 7.52344 29.7207 7.63477 29.4082 7.63477C29.2754 7.63477 29.1641 7.58789 29.0742 7.49414C28.9883 7.39648 28.9453 7.28711 28.9453 7.16602C28.9453 7.04492 28.9902 6.94727 29.0801 6.87305C29.1699 6.79492 29.2852 6.75586 29.4258 6.75586C29.5352 6.75586 29.6133 6.80078 29.6602 6.89062C29.4531 6.95312 29.3496 7.02734 29.3496 7.11328C29.3496 7.33203 29.4492 7.44141 29.6484 7.44141C29.8047 7.44141 29.9316 7.35938 30.0293 7.19531C30.1309 7.02734 30.1816 6.84961 30.1816 6.66211C30.1816 6.42383 30.0996 6.21875 29.9355 6.04688C29.7715 5.87109 29.5723 5.7832 29.3379 5.7832C29.0293 5.7832 28.791 5.92578 28.623 6.21094C28.459 6.49609 28.377 6.86914 28.377 7.33008C28.377 7.74805 28.5078 8.10938 28.7695 8.41406C29.0352 8.71484 29.3613 8.86523 29.748 8.86523C30.3496 8.86523 30.8633 8.65625 31.2891 8.23828C31.7188 7.81641 31.9336 7.26172 31.9336 6.57422C31.9336 6.25781 31.8398 5.99023 31.6523 5.77148C31.4688 5.54883 31.2402 5.36523 30.9668 5.2207C30.6973 5.07617 30.3262 4.9082 29.8535 4.7168C29.3809 4.52539 28.998 4.35352 28.7051 4.20117C28.416 4.04492 28.1699 3.8418 27.9668 3.5918C27.7676 3.3418 27.668 3.03711 27.668 2.67773C27.668 2.18164 27.8887 1.76172 28.3301 1.41797C28.7754 1.07422 29.2949 0.902344 29.8887 0.902344C30.2715 0.902344 30.5957 0.996094 30.8613 1.18359C31.127 1.36719 31.2598 1.60938 31.2598 1.91016C31.2598 2.25 31.1699 2.54102 30.9902 2.7832C30.8145 3.02539 30.5801 3.14648 30.2871 3.14648C30.0605 3.14648 29.8652 3.09766 29.7012 3C29.5371 2.89844 29.4551 2.76367 29.4551 2.5957C29.4551 2.45508 29.5039 2.32812 29.6016 2.21484C29.7031 2.09766 29.832 2.03906 29.9883 2.03906C30.25 2.03906 30.3809 2.13477 30.3809 2.32617ZM36.3281 7.74023C36.5117 7.74023 36.6035 7.82812 36.6035 8.00391C36.6035 8.11719 36.5527 8.21484 36.4512 8.29688C36.3535 8.375 36.2598 8.41406 36.1699 8.41406C36.0566 8.41406 35.9395 8.35938 35.8184 8.25C35.7012 8.14062 35.6426 8.00586 35.6426 7.8457C35.6426 7.62305 35.7148 7.44922 35.8594 7.32422C36.0039 7.19531 36.1836 7.13086 36.3984 7.13086C36.6562 7.13086 36.8711 7.22266 37.043 7.40625C37.2148 7.58594 37.3008 7.81641 37.3008 8.09766C37.3008 8.42969 37.1543 8.69336 36.8613 8.88867C36.5723 9.08398 36.2539 9.18164 35.9062 9.18164C35.2734 9.18164 34.6855 8.91992 34.1426 8.39648C33.5996 7.86914 33.3281 7.23047 33.3281 6.48047C33.3281 5.77344 33.5918 5.13086 34.1191 4.55273C34.6465 3.97461 35.207 3.68555 35.8008 3.68555C36.2461 3.68555 36.6582 3.83398 37.0371 4.13086C37.4199 4.42383 37.6113 4.73047 37.6113 5.05078C37.6113 5.44922 37.4473 5.77539 37.1191 6.0293C36.7949 6.2832 36.3867 6.41016 35.8945 6.41016C35.418 6.41016 35.0508 6.34375 34.793 6.21094C34.5352 6.07812 34.4062 5.89258 34.4062 5.6543C34.4062 5.43945 34.4863 5.26367 34.6465 5.12695C34.8066 4.99023 34.9746 4.92188 35.1504 4.92188C35.3066 4.92188 35.4473 4.96289 35.5723 5.04492C35.7012 5.12305 35.7656 5.2168 35.7656 5.32617C35.7656 5.44336 35.7207 5.55273 35.6309 5.6543C35.5449 5.75586 35.4609 5.80664 35.3789 5.80664C35.2188 5.80664 35.1387 5.75195 35.1387 5.64258C35.3223 5.5918 35.4141 5.50391 35.4141 5.37891C35.4141 5.28125 35.3789 5.20508 35.3086 5.15039C35.2383 5.0918 35.1543 5.0625 35.0566 5.0625C34.9863 5.0625 34.9199 5.12109 34.8574 5.23828C34.7949 5.35156 34.7637 5.46875 34.7637 5.58984C34.7637 5.76172 34.8848 5.91016 35.127 6.03516C35.373 6.15625 35.6699 6.2168 36.0176 6.2168C36.3145 6.2168 36.5449 6.12695 36.709 5.94727C36.873 5.76758 36.9551 5.52539 36.9551 5.2207C36.9551 4.9043 36.8359 4.60156 36.5977 4.3125C36.3594 4.02344 36.0664 3.87891 35.7188 3.87891C35.2852 3.87891 34.916 4.12305 34.6113 4.61133C34.3066 5.0957 34.1543 5.75391 34.1543 6.58594C34.1543 7.27344 34.3281 7.8418 34.6758 8.29102C35.0273 8.74023 35.459 8.96484 35.9707 8.96484C36.209 8.96484 36.4453 8.88281 36.6797 8.71875C36.918 8.55078 37.0371 8.33984 37.0371 8.08594C37.0371 7.91406 36.9531 7.76758 36.7852 7.64648C36.6172 7.52539 36.4336 7.46484 36.2344 7.46484C36.125 7.46484 36.0312 7.5 35.9531 7.57031C35.875 7.64062 35.8359 7.72461 35.8359 7.82227C35.8359 7.99023 35.9355 8.07422 36.1348 8.07422C36.1934 8.07422 36.2402 8.03906 36.2754 7.96875C36.3105 7.89453 36.3281 7.81836 36.3281 7.74023ZM39.4688 5.34961C39.8828 4.18164 40.5 3.59766 41.3203 3.59766C41.9023 3.59766 42.4258 3.84375 42.8906 4.33594C43.3555 4.82422 43.5879 5.39844 43.5879 6.05859C43.5879 6.78125 43.373 7.47656 42.9434 8.14453C42.5137 8.8125 42.0605 9.14648 41.584 9.14648C41.377 9.14648 41.1738 9.05469 40.9746 8.87109C40.7793 8.6875 40.6816 8.49414 40.6816 8.29102C40.6816 8.12695 40.7656 7.98047 40.9336 7.85156C41.1016 7.72266 41.2734 7.6582 41.4492 7.6582C41.8594 7.6582 42.0645 7.78516 42.0645 8.03906C42.0645 8.28125 41.916 8.40234 41.6191 8.40234C41.4824 8.40234 41.4023 8.37305 41.3789 8.31445L41.4258 8.25586C41.4766 8.27148 41.5215 8.2793 41.5605 8.2793C41.6387 8.2793 41.6777 8.20703 41.6777 8.0625C41.6777 7.90234 41.6016 7.82227 41.4492 7.82227C41.3672 7.82227 41.293 7.88477 41.2266 8.00977C41.1602 8.13086 41.127 8.25391 41.127 8.37891C41.127 8.75391 41.2949 8.94141 41.6309 8.94141C42.3926 8.94141 42.7734 7.92578 42.7734 5.89453C42.7734 5.40234 42.625 4.94141 42.3281 4.51172C42.0312 4.07812 41.6875 3.86133 41.2969 3.86133C40.9688 3.86133 40.668 3.99219 40.3945 4.25391C40.125 4.51172 39.9121 4.81641 39.7559 5.16797C39.5996 5.51562 39.5215 5.71289 39.5215 5.75977L39.293 8.8418L39.9258 8.68945L39.9961 8.95312C39.582 9.05469 39.2754 9.10547 39.0762 9.10547C38.8809 9.10547 38.5996 9.09375 38.2324 9.07031L38.2852 8.80664L39.0645 8.86523C39.0723 8.71289 39.0762 8.53125 39.0762 8.32031C39.0762 6.72656 38.9277 5.21289 38.6309 3.7793L37.9688 3.89062L37.8984 3.67383C38.4414 3.60742 39.002 3.43555 39.5801 3.1582L39.4688 5.34961Z" fill="white"/>
</svg>
